
        <svg xmlns="http://www.w3.org/2000/svg" xmlns:xlink="http://www.w3.org/1999/xlink" version="1.1" width="3187.5" height="1381.6100047485718" viewBox="0 0 3187.5 1381.6100047485718">
			
			<g transform="scale(9.375) translate(10, 10)">
				<defs id="SvgjsDefs1385"/><g id="SvgjsG1386" featureKey="PG4fjM-0" transform="matrix(1.4203669295683439,0,0,1.4203669295683439,-22.29625354815401,-7.530465847669896)" fill="#000"><g xmlns="http://www.w3.org/2000/svg"><path d="M17.147,81.16c-1.638,1.276-1.932,3.64-0.655,5.279c0.741,0.951,1.849,1.448,2.968,1.448c0.808,0,1.623-0.259,2.311-0.795   c3.135-2.441,7.417-3.973,12.144-5.309c-1.461-2.079-2.97-4.253-4.414-6.532C24.976,76.657,20.664,78.423,17.147,81.16z"/><path d="M54.558,7.611c-0.802-1.916-3.005-2.819-4.921-2.016c-1.916,0.801-2.818,3.004-2.017,4.921   c1.93,4.61,4.931,9.113,7.833,13.469c3.933,5.901,7.733,11.61,9.321,17.711l-20.609-7.718c2.632-1.685,5.615-2.96,8.805-4.03   l-5.1-7.304c-8.646,3.253-16.546,8.412-20.531,19.049c-5.915,15.795,2.644,27.965,10.196,38.705   c2.95,4.194,5.736,8.155,7.461,12.027c0.713,1.602,2.283,2.552,3.929,2.552c0.584,0,1.179-0.119,1.746-0.373   c2.169-0.966,3.145-3.507,2.179-5.674c-2.066-4.64-5.226-9.132-8.283-13.479c-3.951-5.617-7.775-11.06-9.542-16.834l20.441,7.655   c-2.74,1.821-5.86,3.157-9.197,4.268l4.468,6.398c8.53-3.158,16.388-8.199,20.376-18.851c5.796-15.471-2.278-27.586-9.399-38.273   C58.884,15.568,56.21,11.557,54.558,7.611z M59.288,63.114L34.07,53.669c-0.171-2.229,0.015-4.525,0.662-6.913l28.487,10.669   C62.153,59.653,60.828,61.525,59.288,63.114z M64.733,53.402L36.248,42.734c1.071-2.204,2.414-4.062,3.99-5.638l25.286,9.469   C65.623,48.771,65.39,51.041,64.733,53.402z"/><path d="M85.009,11.782c-1.581-1.769-4.298-1.923-6.069-0.342c-3.258,2.91-8.129,4.635-13.55,6.143   c1.59,2.385,3.26,4.896,4.831,7.546c5.39-1.642,10.5-3.753,14.446-7.278C86.437,16.27,86.591,13.553,85.009,11.782z"/></g></g><g id="SvgjsG1387" featureKey="jxYttZ-0" transform="matrix(1.6079755942791194,0,0,1.6079755942791194,117.10564400697183,43.249558893032365)" fill="#000"><path d="M12.92 10.52 c0 3.04 -2.36 5.5 -5.28 5.52 l-3.6 0 l0 3.96 l-2.24 0 l0 -15 l5.84 0 c2.92 0.02 5.28 2.48 5.28 5.52 z M7.6 14.2 c1.72 0 3.1 -1.66 3.1 -3.68 s-1.38 -3.68 -3.1 -3.68 l-3.56 0 l0 7.36 l3.56 0 z M24.66 14.3 l0 5.7 l-2.06 0 l0 -5.5 c0 -2 -0.62 -2.88 -2.32 -2.88 c-1.92 0 -2.7 1.34 -2.7 3.08 l0 5.3 l-2.06 0 l0 -15 l2.06 0 l0 6.72 c0.28 -0.88 1.52 -1.68 2.7 -1.76 c2.68 -0.2 4.38 1.1 4.38 4.34 z M31.480000000000004 9.92 c2.84 0 3.98 1.72 3.98 3.18 l0 6.9 l-2.06 0 l0 -1.08 c-0.72 0.98 -2 1.26 -2.8 1.26 c-2.26 0 -3.74 -1.32 -3.74 -3.08 c0 -2.46 1.84 -3.34 3.74 -3.34 l2.8 0 l0 -0.66 c0 -0.62 -0.24 -1.48 -1.92 -1.48 c-0.94 0 -1.8 0.5 -2.36 1.28 l-1.42 -1.28 c0.94 -1.04 2.28 -1.7 3.78 -1.7 z M33.400000000000006 16.92 l0 -1.48 l-2.52 0 c-1.22 0 -2.08 0.62 -1.94 1.74 c0.12 0.94 0.88 1.32 1.94 1.32 c1.9 0 2.52 -0.9 2.52 -1.58 z M43.88 10.24 l-0.44 1.62 c-0.14 -0.08 -0.58 -0.22 -0.94 -0.22 c-1.7 0 -2.5 1.62 -2.5 3.62 l0 4.74 l-2.06 0 l0 -9.88 l2.06 0 l0 1.4 c0.24 -0.92 1.3 -1.58 2.48 -1.58 c0.54 0 1.12 0.14 1.4 0.3 z M53.96 14.3 l0 5.7 l-2.08 0 l0.02 -0.08 l0 -5.42 c0 -2 -0.52 -2.88 -2.22 -2.88 c-1.92 0 -2.6 1.34 -2.6 3.08 l0 5.3 l-2.06 0 l0 -9.88 l2.06 0 l0 1.6 c0.28 -0.88 1.42 -1.68 2.6 -1.76 c1.94 -0.14 3.32 0.5 3.94 2.1 c0.42 -1.36 1.76 -2.02 2.92 -2.1 c2.68 -0.2 4.28 1.1 4.28 4.34 l0 5.7 l-2.06 0 l0 -5.5 c0 -2 -0.52 -2.88 -2.22 -2.88 c-1.72 0 -2.44 1.08 -2.58 2.68 z M67.32000000000001 9.92 c2.84 0 3.98 1.72 3.98 3.18 l0 6.9 l-2.06 0 l0 -1.08 c-0.72 0.98 -2 1.26 -2.8 1.26 c-2.26 0 -3.74 -1.32 -3.74 -3.08 c0 -2.46 1.84 -3.34 3.74 -3.34 l2.8 0 l0 -0.66 c0 -0.62 -0.24 -1.48 -1.92 -1.48 c-0.94 0 -1.8 0.5 -2.36 1.28 l-1.42 -1.28 c0.94 -1.04 2.28 -1.7 3.78 -1.7 z M69.24000000000001 16.92 l0 -1.48 l-2.52 0 c-1.22 0 -2.08 0.62 -1.94 1.74 c0.12 0.94 0.88 1.32 1.94 1.32 c1.9 0 2.52 -0.9 2.52 -1.58 z M85.28000000000002 16.46 l1.46 1.46 c-1.38 1.52 -3.36 2.28 -5.54 2.28 c-4.22 0 -7.62 -3.34 -7.62 -7.7 c0 -4.34 3.4 -7.68 7.62 -7.68 c2.18 0 4.16 0.76 5.56 2.3 l-1.46 1.46 c-0.88 -1.28 -2.48 -1.92 -4.1 -1.92 c-3.1 0 -5.4 2.76 -5.4 5.84 c0 2.82 2.08 5.86 5.4 5.86 c1.44 0 3.28 -0.56 4.08 -1.9 z M98.5 14.3 l0 5.7 l-2.06 0 l0 -5.5 c0 -2 -0.62 -2.88 -2.32 -2.88 c-1.92 0 -2.7 1.34 -2.7 3.08 l0 5.3 l-2.06 0 l0 -15 l2.06 0 l0 6.72 c0.28 -0.88 1.52 -1.68 2.7 -1.76 c2.68 -0.2 4.38 1.1 4.38 4.34 z M105.32000000000001 9.92 c2.84 0 3.98 1.72 3.98 3.18 l0 6.9 l-2.06 0 l0 -1.08 c-0.72 0.98 -2 1.26 -2.8 1.26 c-2.26 0 -3.74 -1.32 -3.74 -3.08 c0 -2.46 1.84 -3.34 3.74 -3.34 l2.8 0 l0 -0.66 c0 -0.62 -0.24 -1.48 -1.92 -1.48 c-0.94 0 -1.8 0.5 -2.36 1.28 l-1.42 -1.28 c0.94 -1.04 2.28 -1.7 3.78 -1.7 z M107.24000000000001 16.92 l0 -1.48 l-2.52 0 c-1.22 0 -2.08 0.62 -1.94 1.74 c0.12 0.94 0.88 1.32 1.94 1.32 c1.9 0 2.52 -0.9 2.52 -1.58 z M114.14000000000001 10.12 l0 9.88 l-2.06 0 l0 -9.88 l2.06 0 z M114.24000000000001 6.5 c0 0.64 -0.5 1.14 -1.14 1.14 c-0.62 0 -1.12 -0.5 -1.12 -1.14 c0 -0.62 0.5 -1.12 1.12 -1.12 c0.64 0 1.14 0.5 1.14 1.12 z M126.18000000000002 14.3 l0 5.7 l-2.06 0 l0 -5.5 c0 -2 -0.62 -2.88 -2.32 -2.88 c-1.92 0 -2.7 1.34 -2.7 3.08 l0 5.3 l-2.06 0 l0 -9.88 l2.06 0 l0 1.6 c0.28 -0.88 1.52 -1.68 2.7 -1.76 c2.68 -0.2 4.38 1.1 4.38 4.34 z"/></g>
			</g>
		</svg>
	